<svg width="35" height="35" viewBox="0 0 35 35" fill="none" xmlns="http://www.w3.org/2000/svg">
<g clip-path="url(#clip0_11_1540)">
<path d="M17.5024 7.29172C14.7954 7.29443 12.1999 8.37054 10.2856 10.2839C8.37123 12.1973 7.29428 14.7918 7.29102 17.498C7.28897 19.4249 7.8303 21.3025 8.85143 22.9281L9.09339 23.3134L8.062 27.079L11.9271 26.0664L12.2983 26.2878C13.8721 27.219 15.6675 27.7097 17.4962 27.7083H17.4983C20.2045 27.7046 22.7987 26.6283 24.7125 24.7155C26.6262 22.8028 27.7033 20.2095 27.7076 17.5041C27.7123 16.1632 27.4508 14.8346 26.9384 13.5953C26.4259 12.3561 25.6726 11.2307 24.7221 10.2845C23.7765 9.33307 22.6515 8.57863 21.4122 8.06491C20.1729 7.55118 18.844 7.28838 17.5024 7.29172ZM23.5062 21.8826C23.2499 22.6001 22.0237 23.2519 21.4352 23.3401C20.7901 23.4513 20.1278 23.4099 19.5016 23.2191C18.9075 23.0352 18.3236 22.8197 17.7526 22.5734C14.6727 21.2451 12.6633 18.1478 12.5074 17.9408C12.3557 17.7358 11.2566 16.2763 11.2566 14.7676C11.2566 13.2568 12.0481 12.5148 12.329 12.2073C12.4322 12.0908 12.5583 11.9968 12.6994 11.9312C12.8405 11.8656 12.9936 11.8298 13.1492 11.826C13.3543 11.826 13.5573 11.8281 13.7377 11.8363C13.9264 11.8445 14.1786 11.7645 14.4267 12.3631C14.683 12.978 15.2981 14.4867 15.374 14.6405C15.4499 14.7922 15.5011 14.9726 15.4007 15.1775C15.2981 15.3846 15.2489 15.5096 15.0931 15.69C14.9413 15.8704 14.7712 16.0897 14.6338 16.2291C14.48 16.3808 14.3201 16.5468 14.4984 16.8543C14.6789 17.1598 15.294 18.1662 16.2044 18.98C17.3773 20.0255 18.3677 20.3473 18.6732 20.5031C18.9808 20.6548 19.1592 20.6322 19.3396 20.4252C19.518 20.2182 20.1065 19.5294 20.3115 19.224C20.5166 18.9165 20.7196 18.9677 21.0026 19.0682C21.2835 19.1727 22.7926 19.9127 23.0981 20.0665C23.4016 20.2182 23.6087 20.296 23.6866 20.4252C23.7605 20.5523 23.7605 21.1652 23.5062 21.8826Z" fill="#4AC561"/>
<path d="M33.0556 0H1.94444C1.42875 0 0.934169 0.20486 0.569515 0.569515C0.20486 0.934169 0 1.42875 0 1.94444V33.0556C0 33.5713 0.20486 34.0658 0.569515 34.4305C0.934169 34.7951 1.42875 35 1.94444 35H33.0556C33.5713 35 34.0658 34.7951 34.4305 34.4305C34.7951 34.0658 35 33.5713 35 33.0556V1.94444C35 1.42875 34.7951 0.934169 34.4305 0.569515C34.0658 0.20486 33.5713 0 33.0556 0ZM17.5778 28.9644H17.5739C15.6296 28.9647 13.7162 28.4773 12.0089 27.5469L5.83333 29.1667L7.48611 23.1311C6.46524 21.3602 5.92834 19.3518 5.92935 17.3076C5.93035 15.2635 6.46921 13.2556 7.49182 11.4857C8.51442 9.71571 9.98476 8.246 11.7552 7.22415C13.5255 6.2023 15.5337 5.6643 17.5778 5.66417C19.1091 5.65993 20.626 5.95973 22.0406 6.54619C23.4551 7.13264 24.7392 7.99408 25.8183 9.08056C26.9025 10.1604 27.7616 11.4446 28.346 12.8588C28.9305 14.2729 29.2286 15.789 29.2231 17.3192C29.2184 20.4063 27.99 23.3656 25.8071 25.5485C23.6242 27.7314 20.6649 28.9598 17.5778 28.9644Z" fill="#4AC561"/>
</g>
<defs>
<clipPath id="clip0_11_1540">
<rect width="35" height="35" fill="white"/>
</clipPath>
</defs>
</svg>
