<svg width="30" height="30" viewBox="0 0 30 30" fill="none" xmlns="http://www.w3.org/2000/svg">
<path d="M18 4.51172C18.0495 4.33072 18.1682 4.17643 18.3304 4.08216C18.4926 3.98789 18.6854 3.96118 18.8672 4.00781C20.5751 4.46686 22.1323 5.36672 23.3828 6.61723C24.6333 7.86773 25.5331 9.42495 25.9922 11.1328C26.0169 11.2229 26.0234 11.3169 26.0114 11.4095C25.9993 11.5021 25.969 11.5913 25.922 11.6721C25.8751 11.7528 25.8126 11.8234 25.7381 11.8797C25.6637 11.936 25.5787 11.9769 25.4883 12L25.3125 12.0234C25.1568 12.0232 25.0056 11.9713 24.8826 11.8758C24.7596 11.7804 24.6717 11.6468 24.6328 11.4961C24.2354 10.0283 23.4605 8.6901 22.3852 7.61482C21.3099 6.53953 19.9717 5.76461 18.5039 5.36719C18.3255 5.31765 18.1732 5.20078 18.0792 5.04121C17.9852 4.88164 17.9568 4.69181 18 4.51172ZM17.5313 8.98828C18.3637 9.21617 19.1224 9.65697 19.7327 10.2673C20.343 10.8776 20.7838 11.6363 21.0117 12.4688C21.0506 12.6195 21.1385 12.7531 21.2615 12.8485C21.3845 12.9439 21.5357 12.9958 21.6914 12.9961L21.8672 12.9727C22.0465 12.9206 22.1989 12.8014 22.2928 12.64C22.3866 12.4785 22.4146 12.2871 22.3711 12.1055C22.0816 11.033 21.5158 10.0552 20.7303 9.2697C19.9448 8.4842 18.967 7.91844 17.8945 7.62891C17.7129 7.58535 17.5215 7.6134 17.36 7.70723C17.1986 7.80106 17.0794 7.95347 17.0273 8.13281C16.981 8.31307 17.0081 8.50433 17.1025 8.66469C17.197 8.82504 17.3511 8.94141 17.5313 8.98828ZM26.9063 20.4844C26.7098 22.012 25.964 23.4159 24.8081 24.4338C23.6521 25.4517 22.1652 26.014 20.625 26.0156C11.4492 26.0156 3.98438 18.5508 3.98438 9.375C3.98603 7.83479 4.54832 6.34786 5.56622 5.19194C6.58411 4.03603 7.98799 3.29019 9.51562 3.09375C9.86714 3.0526 10.2225 3.12623 10.5288 3.30363C10.835 3.48104 11.0757 3.75272 11.2148 4.07813L13.5703 9.57422C13.6772 9.8229 13.7213 10.094 13.6988 10.3637C13.6763 10.6335 13.5879 10.8935 13.4414 11.1211L11.4844 14.0977C11.465 14.1312 11.4539 14.1689 11.4519 14.2076C11.4498 14.2463 11.4569 14.2849 11.4727 14.3203C12.3728 16.1659 13.8668 17.6557 15.7148 18.5508C15.7507 18.5669 15.7902 18.5732 15.8293 18.5691C15.8684 18.565 15.9058 18.5506 15.9375 18.5273L18.8789 16.5703C19.1042 16.4189 19.364 16.3267 19.6344 16.3021C19.9047 16.2776 20.1769 16.3214 20.4258 16.4297L25.9219 18.7852C26.2473 18.9243 26.519 19.165 26.6964 19.4712C26.8738 19.7775 26.9474 20.1329 26.9063 20.4844ZM25.5117 20.3086C25.5157 20.2597 25.5043 20.2108 25.4791 20.1688C25.4539 20.1267 25.4161 20.0937 25.3711 20.0742L19.875 17.7188C19.8387 17.7048 19.7996 17.6996 19.7609 17.7037C19.7221 17.7078 19.685 17.721 19.6523 17.7422L16.7227 19.6992C16.4855 19.855 16.2124 19.9476 15.9293 19.9681C15.6462 19.9886 15.3627 19.9364 15.1055 19.8164C12.9739 18.7787 11.2499 17.0588 10.207 14.9297C10.0852 14.6756 10.031 14.3943 10.0494 14.1131C10.0679 13.8319 10.1585 13.5602 10.3125 13.3242L12.2578 10.3477C12.281 10.3159 12.2954 10.2786 12.2996 10.2395C12.3037 10.2004 12.2974 10.1609 12.2813 10.125L9.92578 4.62891C9.90781 4.58771 9.87837 4.55255 9.84097 4.52761C9.80357 4.50268 9.75979 4.48903 9.71484 4.48828H9.69141C8.5045 4.6443 7.41447 5.22555 6.62357 6.12421C5.83268 7.02286 5.3946 8.17789 5.39063 9.375C5.39373 13.4145 6.99977 17.2876 9.8561 20.1439C12.7124 23.0002 16.5855 24.6063 20.625 24.6094C21.8221 24.6054 22.9771 24.1673 23.8758 23.3764C24.7744 22.5855 25.3557 21.4955 25.5117 20.3086Z" fill="#111111"/>
</svg>
