<svg width="20" height="20" viewBox="0 0 20 20" fill="none" xmlns="http://www.w3.org/2000/svg">
<path d="M16.1977 3.38745H3.80599C3.25346 3.38745 2.72355 3.60694 2.33285 3.99765C1.94215 4.38835 1.72266 4.91825 1.72266 5.47078V14.5291C1.72266 15.0817 1.94215 15.6116 2.33285 16.0023C2.72355 16.393 3.25346 16.6124 3.80599 16.6124H16.1977C16.7502 16.6124 17.2801 16.393 17.6708 16.0023C18.0615 15.6116 18.281 15.0817 18.281 14.5291V5.47078C18.281 4.91825 18.0615 4.38835 17.6708 3.99765C17.2801 3.60694 16.7502 3.38745 16.1977 3.38745ZM3.80599 4.22078H16.1977C16.5131 4.21987 16.817 4.33913 17.0477 4.55429C17.2783 4.76946 17.4184 5.06439 17.4393 5.37912C15.381 6.47912 13.3143 7.57078 11.2477 8.67078C10.9681 8.846 10.6723 8.9939 10.3643 9.11245C10.1226 9.16016 9.87344 9.15585 9.63349 9.09981C9.39354 9.04378 9.16827 8.9373 8.97266 8.78745C7.78932 8.16245 6.60599 7.52912 5.43099 6.90412C4.48099 6.40412 3.51432 5.89578 2.56432 5.38745C2.58365 5.07138 2.72293 4.77462 2.9537 4.55778C3.18447 4.34095 3.48933 4.22041 3.80599 4.22078ZM17.4477 14.5291C17.4477 14.8606 17.316 15.1786 17.0815 15.413C16.8471 15.6474 16.5292 15.7791 16.1977 15.7791H3.80599C3.47447 15.7791 3.15653 15.6474 2.92211 15.413C2.68769 15.1786 2.55599 14.8606 2.55599 14.5291V6.33328C4.52266 7.36662 6.48099 8.41662 8.44766 9.45828C8.79903 9.67371 9.1773 9.84183 9.57266 9.95828C10.1513 10.0524 10.7444 9.93079 11.2393 9.61662C12.4477 8.98328 13.6477 8.34162 14.856 7.70828C15.7227 7.24162 16.581 6.79162 17.4477 6.33328V14.5291Z" fill="#111111"/>
</svg>
