<svg width="20" height="20" viewBox="0 0 20 20" fill="none" xmlns="http://www.w3.org/2000/svg">
<path d="M2.03125 10C2.03125 11.5761 2.49861 13.1167 3.37423 14.4272C4.24984 15.7377 5.49439 16.759 6.95049 17.3622C8.40659 17.9653 10.0088 18.1231 11.5546 17.8156C13.1004 17.5082 14.5203 16.7492 15.6348 15.6348C16.7492 14.5203 17.5082 13.1004 17.8156 11.5546C18.1231 10.0088 17.9653 8.40659 17.3622 6.95049C16.759 5.49439 15.7377 4.24984 14.4272 3.37422C13.1167 2.4986 11.5761 2.03125 10 2.03125C7.88782 2.03538 5.86334 2.87626 4.3698 4.3698C2.87627 5.86334 2.03538 7.88782 2.03125 10ZM17.0312 10C17.0312 11.3906 16.6189 12.7501 15.8463 13.9063C15.0737 15.0626 13.9755 15.9638 12.6907 16.496C11.406 17.0282 9.9922 17.1674 8.62827 16.8961C7.26434 16.6248 6.01149 15.9552 5.02816 14.9718C4.04482 13.9885 3.37516 12.7357 3.10385 11.3717C2.83255 10.0078 2.97179 8.59405 3.50397 7.30925C4.03615 6.02446 4.93736 4.92633 6.09365 4.15373C7.24993 3.38112 8.60935 2.96875 10 2.96875C11.8642 2.97081 13.6514 3.71227 14.9696 5.03043C16.2877 6.3486 17.0292 8.13583 17.0312 10ZM10 5.15625C10.1243 5.15625 10.2435 5.20563 10.3315 5.29354C10.4194 5.38145 10.4687 5.50068 10.4687 5.625L10.4687 8.86718L12.7656 6.57812C12.8526 6.4911 12.9707 6.44221 13.0937 6.44221C13.2168 6.44221 13.3349 6.4911 13.4219 6.57812C13.5089 6.66514 13.5578 6.78317 13.5578 6.90625C13.5578 7.02932 13.5089 7.14735 13.4219 7.23437L10.3281 10.3281C10.2864 10.3733 10.2356 10.4092 10.1791 10.4334C10.1225 10.4577 10.0615 10.4697 10 10.4687C9.87568 10.4687 9.75645 10.4194 9.66854 10.3315C9.58064 10.2435 9.53125 10.1243 9.53125 10L9.53125 5.625C9.53125 5.50068 9.58064 5.38145 9.66854 5.29354C9.75645 5.20563 9.87568 5.15625 10 5.15625Z" fill="#111111"/>
</svg>
