<svg width="35" height="35" viewBox="0 0 35 35" fill="none" xmlns="http://www.w3.org/2000/svg">
<g clip-path="url(#clip0_11_1536)">
<rect width="35" height="35" rx="2" fill="#7D4F9A"/>
<path d="M27.0308 7.4344C26.411 6.86669 23.9006 5.04169 18.31 5.01773C18.31 5.01773 11.7131 4.62294 8.49956 7.5719C6.71206 9.3594 6.08602 11.9771 6.01415 15.224C5.94227 18.4709 5.86206 24.5563 11.7277 26.2104H11.7329L11.7277 28.7302C11.7277 28.7302 11.6891 29.7511 12.36 29.9563C13.1704 30.2104 13.6496 29.4334 14.4256 28.5979C14.8506 28.1386 15.436 27.4657 15.8808 26.9521C18.4298 27.1882 21.0003 26.992 23.4839 26.3719L23.3277 26.4052C24.1381 26.1417 28.7235 25.5552 29.4652 19.4709C30.2402 13.1896 29.0964 9.22711 27.0308 7.4344V7.4344ZM27.71 19.0125C27.0777 24.0906 23.3631 24.4136 22.6798 24.6323C21.1881 25.0115 19.4756 25.2282 17.7121 25.2282C17.2058 25.2282 16.7037 25.2104 16.2069 25.175L16.2735 25.1792C16.2735 25.1792 13.7339 28.2407 12.9433 29.0365C12.685 29.2948 12.4006 29.274 12.4058 28.7584C12.4058 28.4219 12.4256 24.5729 12.4256 24.5729C7.45998 23.1959 7.74748 18.0125 7.80581 15.3052C7.86415 12.5979 8.37248 10.3729 9.88602 8.87919C12.6069 6.41357 18.2079 6.77919 18.2079 6.77919C22.9402 6.79898 25.2058 8.22502 25.7329 8.70315C27.4766 10.1979 28.3652 13.7729 27.71 19.0115V19.0125ZM20.9277 15.0667V15.0813C20.9255 15.1624 20.8922 15.2396 20.8348 15.2969C20.7773 15.3542 20.7001 15.3873 20.619 15.3893C20.5378 15.3913 20.459 15.3621 20.3988 15.3077C20.3386 15.2533 20.3016 15.1778 20.2954 15.0969V15.0959C20.3166 14.8784 20.2904 14.6589 20.2185 14.4525C20.1466 14.2462 20.0308 14.0578 19.8791 13.9006C19.7274 13.7433 19.5434 13.6208 19.3397 13.5416C19.1361 13.4624 18.9177 13.4283 18.6996 13.4417H18.7037C18.6228 13.4354 18.5473 13.3983 18.493 13.338C18.4386 13.2777 18.4095 13.1988 18.4116 13.1176C18.4138 13.0365 18.447 12.9592 18.5045 12.9019C18.5619 12.8445 18.6392 12.8114 18.7204 12.8094H18.7381H18.7371L18.8089 12.8084C19.0998 12.8083 19.3875 12.8679 19.6543 12.9837C19.9211 13.0995 20.1612 13.2688 20.3598 13.4813C20.5584 13.6938 20.7112 13.9448 20.8087 14.2187C20.9062 14.4927 20.9463 14.7838 20.9266 15.074V15.0677L20.9277 15.0667ZM21.9183 15.6198C21.9673 13.549 20.6735 11.9281 18.2173 11.7469C18.1747 11.7456 18.1327 11.7356 18.0941 11.7177C18.0554 11.6998 18.0207 11.6742 17.9921 11.6426C17.9635 11.6109 17.9417 11.5738 17.9278 11.5335C17.9139 11.4932 17.9083 11.4505 17.9113 11.408C17.9143 11.3654 17.9259 11.324 17.9453 11.286C17.9648 11.2481 17.9917 11.2144 18.0244 11.1871C18.0572 11.1598 18.0951 11.1394 18.136 11.1271C18.1768 11.1149 18.2197 11.1109 18.2621 11.1156H18.261H18.2787C18.8616 11.1156 19.4384 11.2348 19.9736 11.4657C20.5088 11.6967 20.9912 12.0347 21.391 12.4588C21.7909 12.883 22.0998 13.3844 22.2989 13.9322C22.4979 14.4801 22.5829 15.0629 22.5485 15.6448L22.5496 15.6334C22.544 15.7141 22.5077 15.7896 22.4482 15.8444C22.3887 15.8993 22.3104 15.9292 22.2295 15.9282C22.1486 15.9271 22.0711 15.8951 22.0131 15.8387C21.955 15.7823 21.9207 15.7059 21.9173 15.625V15.6167L21.9183 15.6198ZM24.21 16.275V16.2771C24.2058 16.3579 24.1708 16.4339 24.1123 16.4897C24.0538 16.5455 23.9762 16.5768 23.8953 16.5772C23.8145 16.5776 23.7365 16.5471 23.6775 16.4919C23.6184 16.4367 23.5827 16.3609 23.5777 16.2802C23.5527 12.299 20.8975 10.1313 17.6798 10.1084C17.6383 10.1084 17.5973 10.1002 17.559 10.0843C17.5207 10.0685 17.4859 10.0452 17.4566 10.0159C17.4273 9.9866 17.404 9.95181 17.3882 9.91352C17.3723 9.87522 17.3641 9.83418 17.3641 9.79273C17.3641 9.75128 17.3723 9.71024 17.3882 9.67195C17.404 9.63365 17.4273 9.59886 17.4566 9.56955C17.4859 9.54024 17.5207 9.51699 17.559 9.50113C17.5973 9.48527 17.6383 9.47711 17.6798 9.47711C21.2829 9.50211 24.1787 11.9886 24.2079 16.274L24.21 16.275ZM23.6631 21.0646V21.074C23.136 22.0021 22.1496 23.0271 21.1339 22.7L21.1246 22.6854C19.3138 22.0191 17.6165 21.0779 16.0923 19.8948L16.135 19.9261C15.3765 19.3238 14.6885 18.6379 14.0839 17.8813L14.0641 17.8552C13.5168 17.1662 13.0282 16.4323 12.6037 15.6615L12.5621 15.5792C12.0598 14.7512 11.6434 13.8741 11.3194 12.9615L11.2881 12.8594C10.961 11.8438 11.9808 10.8573 12.9141 10.3302H12.9235C13.1071 10.2127 13.3276 10.1669 13.5429 10.2017C13.7581 10.2365 13.9529 10.3494 14.0902 10.5188L14.0912 10.5209C14.0912 10.5209 14.6964 11.2427 14.9558 11.6C15.1996 11.9323 15.5277 12.4646 15.6975 12.7615C15.8253 12.9643 15.8773 13.2058 15.8444 13.4433C15.8114 13.6808 15.6955 13.899 15.5173 14.0594L15.5162 14.0604L14.9308 14.5292C14.8395 14.6173 14.769 14.7246 14.7243 14.8433C14.6796 14.962 14.6619 15.0892 14.6725 15.2156V15.2125C14.9624 16.1785 15.4855 17.0583 16.1958 17.7742C16.9061 18.4901 17.7818 19.0202 18.7454 19.3177L18.7891 19.3292C18.915 19.3391 19.0414 19.3212 19.1595 19.2767C19.2776 19.2323 19.3845 19.1623 19.4725 19.0719L19.9412 18.4865C20.1023 18.3074 20.3216 18.1912 20.5602 18.1586C20.7988 18.126 21.0412 18.1791 21.2444 18.3084L21.2402 18.3063C22.0871 18.7886 22.8194 19.3188 23.4871 19.9198L23.4756 19.9094C23.645 20.0445 23.7577 20.238 23.7916 20.4519C23.8256 20.6659 23.7782 20.8848 23.6589 21.0657L23.661 21.0625L23.6631 21.0646Z" fill="white"/>
<path d="M12.25 24.7917V28.9584L12.7708 29.4792L16.4167 25.3125" stroke="white" stroke-width="1.5"/>
</g>
<defs>
<clipPath id="clip0_11_1536">
<rect width="35" height="35" fill="white"/>
</clipPath>
</defs>
</svg>
