<svg width="30" height="30" viewBox="0 0 30 30" fill="none" xmlns="http://www.w3.org/2000/svg">
<path d="M14.4987 8.25797C15.3657 8.25797 16.1973 8.60435 16.8104 9.22091C17.4235 9.83748 17.7679 10.6737 17.7679 11.5457C17.7679 12.4176 17.4235 13.2539 16.8104 13.8704C16.1973 14.487 15.3657 14.8334 14.4987 14.8334C13.6316 14.8334 12.8001 14.487 12.187 13.8704C11.5739 13.2539 11.2295 12.4176 11.2295 11.5457C11.2295 10.6737 11.5739 9.83748 12.187 9.22091C12.8001 8.60435 13.6316 8.25797 14.4987 8.25797ZM14.4987 9.57305C13.9785 9.57305 13.4795 9.78088 13.1117 10.1508C12.7438 10.5208 12.5372 11.0225 12.5372 11.5457C12.5372 12.0688 12.7438 12.5706 13.1117 12.9405C13.4795 13.3105 13.9785 13.5183 14.4987 13.5183C15.0189 13.5183 15.5178 13.3105 15.8857 12.9405C16.2536 12.5706 16.4602 12.0688 16.4602 11.5457C16.4602 11.0225 16.2536 10.5208 15.8857 10.1508C15.5178 9.78088 15.0189 9.57305 14.4987 9.57305ZM8.35254 15.3029L14.4987 25.4685L20.6448 15.3029C21.3077 14.2061 21.6684 12.9517 21.69 11.6684C21.7115 10.3851 21.3932 9.11919 20.7675 8.00053C20.1419 6.88186 19.2315 5.95076 18.1299 5.30278C17.0282 4.6548 15.7749 4.31328 14.4987 4.31328C13.2224 4.31328 11.9692 4.6548 10.8675 5.30278C9.76587 5.95076 8.85551 6.88186 8.22987 8.00053C7.60423 9.11919 7.28585 10.3851 7.30741 11.6684C7.32897 12.9517 7.68968 14.2061 8.35254 15.3029ZM21.7616 15.9867L14.4987 28L7.23577 15.9867C6.45262 14.6905 6.02652 13.2081 6.0012 11.6916C5.97588 10.1751 6.35224 8.67908 7.09167 7.35715C7.8311 6.03523 8.90697 4.93496 10.2089 4.16926C11.5108 3.40356 12.9918 3 14.5 3C16.0082 3 17.4892 3.40356 18.7911 4.16926C20.093 4.93496 21.1689 6.03523 21.9083 7.35715C22.6478 8.67908 23.0241 10.1751 22.9988 11.6916C22.9735 13.2081 22.5474 14.6905 21.7642 15.9867H21.7616Z" fill="black"/>
</svg>
