<svg width="20" height="20" viewBox="0 0 20 20" fill="none" xmlns="http://www.w3.org/2000/svg">
<path d="M9.66579 5.50531C10.2438 5.50531 10.7982 5.73623 11.2069 6.14728C11.6157 6.55832 11.8453 7.11581 11.8453 7.69712C11.8453 8.27842 11.6157 8.83591 11.2069 9.24696C10.7982 9.658 10.2438 9.88892 9.66579 9.88892C9.08776 9.88892 8.5334 9.658 8.12466 9.24696C7.71593 8.83591 7.48631 8.27842 7.48631 7.69712C7.48631 7.11581 7.71593 6.55832 8.12466 6.14728C8.5334 5.73623 9.08776 5.50531 9.66579 5.50531ZM9.66579 6.38203C9.31897 6.38203 8.98636 6.52059 8.74112 6.76721C8.49588 7.01384 8.3581 7.34834 8.3581 7.69712C8.3581 8.0459 8.49588 8.3804 8.74112 8.62702C8.98636 8.87365 9.31897 9.0122 9.66579 9.0122C10.0126 9.0122 10.3452 8.87365 10.5905 8.62702C10.8357 8.3804 10.9735 8.0459 10.9735 7.69712C10.9735 7.34834 10.8357 7.01384 10.5905 6.76721C10.3452 6.52059 10.0126 6.38203 9.66579 6.38203ZM5.56836 10.2019L9.66579 16.979L13.7632 10.2019C14.2051 9.47073 14.4456 8.63446 14.46 7.77894C14.4744 6.92342 14.2621 6.07946 13.845 5.33368C13.4279 4.58791 12.821 3.96717 12.0866 3.53518C11.3521 3.1032 10.5166 2.87552 9.66579 2.87552C8.81496 2.87552 7.97945 3.1032 7.24502 3.53518C6.51058 3.96717 5.90367 4.58791 5.48658 5.33368C5.06949 6.07946 4.85724 6.92342 4.87161 7.77894C4.88598 8.63446 5.12646 9.47073 5.56836 10.2019ZM14.5077 10.6578L9.66579 18.6667L4.82385 10.6578C4.30175 9.79367 4.01768 8.80538 4.0008 7.79438C3.98392 6.78337 4.23483 5.78605 4.72778 4.90477C5.22074 4.02349 5.93798 3.28997 6.80591 2.77951C7.67384 2.26904 8.6612 2 9.66667 2C10.6721 2 11.6595 2.26904 12.5274 2.77951C13.3954 3.28997 14.1126 4.02349 14.6056 4.90477C15.0985 5.78605 15.3494 6.78337 15.3325 7.79438C15.3157 8.80538 15.0316 9.79367 14.5095 10.6578H14.5077Z" fill="black"/>
</svg>
