<svg width="20" height="20" viewBox="0 0 20 20" fill="none" xmlns="http://www.w3.org/2000/svg">
<path d="M12 3.00782C12.033 2.88715 12.1121 2.78429 12.2203 2.72144C12.3284 2.65859 12.457 2.64079 12.5781 2.67188C13.7167 2.97791 14.7548 3.57782 15.5885 4.41149C16.4222 5.24516 17.0221 6.2833 17.3281 7.42188C17.3446 7.4819 17.3489 7.54461 17.3409 7.60633C17.3329 7.66805 17.3126 7.72756 17.2814 7.78137C17.2501 7.83519 17.2084 7.88224 17.1588 7.91977C17.1091 7.95731 17.0525 7.98459 16.9922 8L16.875 8.01563C16.7712 8.01546 16.6704 7.98086 16.5884 7.91723C16.5064 7.85361 16.4478 7.76456 16.4219 7.66407C16.1569 6.68551 15.6403 5.7934 14.9235 5.07655C14.2066 4.35969 13.3145 3.84308 12.3359 3.57813C12.217 3.5451 12.1155 3.46719 12.0528 3.36081C11.9901 3.25443 11.9712 3.12788 12 3.00782ZM11.6875 5.99219C12.2425 6.14412 12.7483 6.43798 13.1552 6.84484C13.562 7.25171 13.8559 7.75753 14.0078 8.3125C14.0338 8.413 14.0923 8.50204 14.1743 8.56567C14.2563 8.62929 14.3571 8.6639 14.4609 8.66407L14.5781 8.64844C14.6977 8.61372 14.7993 8.53429 14.8618 8.42664C14.9244 8.31899 14.9431 8.19139 14.9141 8.07032C14.721 7.35533 14.3439 6.70348 13.8202 6.1798C13.2965 5.65613 12.6447 5.27897 11.9297 5.08594C11.8086 5.0569 11.681 5.0756 11.5734 5.13816C11.4657 5.20071 11.3863 5.30231 11.3516 5.42188C11.3207 5.54205 11.3387 5.66956 11.4017 5.77646C11.4646 5.88336 11.5674 5.96094 11.6875 5.99219ZM17.9375 13.6563C17.8065 14.6747 17.3093 15.6106 16.5387 16.2892C15.7681 16.9678 14.7768 17.3426 13.75 17.3438C7.63281 17.3438 2.65625 12.3672 2.65625 6.25C2.65735 5.2232 3.03222 4.23191 3.71081 3.4613C4.38941 2.69069 5.32533 2.19346 6.34375 2.0625C6.57809 2.03507 6.81503 2.08415 7.01919 2.20242C7.22334 2.3207 7.38379 2.50182 7.47656 2.71875L9.04688 6.38282C9.11811 6.5486 9.14752 6.72934 9.13254 6.90916C9.11755 7.08898 9.05863 7.26236 8.96094 7.41407L7.65625 9.39844C7.64335 9.42082 7.63593 9.44593 7.63457 9.47172C7.63321 9.49752 7.63796 9.52327 7.64844 9.54688C8.24854 10.7773 9.2445 11.7705 10.4766 12.3672C10.5005 12.3779 10.5268 12.3821 10.5529 12.3794C10.579 12.3766 10.6038 12.367 10.625 12.3516L12.5859 11.0469C12.7361 10.946 12.9093 10.8845 13.0896 10.8681C13.2698 10.8517 13.4512 10.881 13.6172 10.9531L17.2812 12.5234C17.4982 12.6162 17.6793 12.7767 17.7976 12.9808C17.9159 13.185 17.9649 13.4219 17.9375 13.6563ZM17.0078 13.5391C17.0105 13.5065 17.0029 13.4739 16.9861 13.4459C16.9693 13.4178 16.9441 13.3958 16.9141 13.3828L13.25 11.8125C13.2258 11.8032 13.1997 11.7997 13.1739 11.8025C13.1481 11.8052 13.1233 11.814 13.1016 11.8281L11.1484 13.1328C10.9903 13.2367 10.8082 13.2984 10.6195 13.3121C10.4308 13.3257 10.2418 13.2909 10.0703 13.2109C8.64924 12.5191 7.4999 11.3725 6.80469 9.95313C6.7235 9.78371 6.68732 9.59623 6.69963 9.40876C6.71195 9.22129 6.77234 9.04016 6.875 8.88282L8.17188 6.89844C8.18736 6.87728 8.19696 6.8524 8.1997 6.82633C8.20245 6.80026 8.19824 6.77392 8.1875 6.75L6.61719 3.08594C6.60521 3.05848 6.58558 3.03503 6.56064 3.01841C6.53571 3.00179 6.50652 2.99269 6.47656 2.99219H6.46094C5.66966 3.0962 4.94298 3.48371 4.41572 4.08281C3.88845 4.68191 3.5964 5.45193 3.59375 6.25C3.59582 8.94297 4.66651 11.5251 6.57073 13.4293C8.47495 15.3335 11.057 16.4042 13.75 16.4063C14.5481 16.4036 15.3181 16.1116 15.9172 15.5843C16.5163 15.057 16.9038 14.3303 17.0078 13.5391Z" fill="#111111"/>
</svg>
